<?xml version="1.0" encoding="utf-8"?>
<!-- Generator: Adobe Illustrator 21.0.0, SVG Export Plug-In . SVG Version: 6.00 Build 0)  -->
<svg version="1.1" id="Capa_1" xmlns="http://www.w3.org/2000/svg" xmlns:xlink="http://www.w3.org/1999/xlink" x="0px" y="0px"
	 viewBox="0 0 18.4 16.3" style="enable-background:new 0 0 18.4 16.3;" xml:space="preserve">
<style type="text/css">
	.st0{fill:#FFFFFF;}
</style>
<title>circle-fav-on</title>
<path id="a" class="st0" d="M9.4,2.5c1.5-1.7,4.1-1.7,5.8-0.2c0.1,0.1,0.1,0.1,0.2,0.2c1.7,1.8,1.7,4.6,0,6.4l-5.8,6.1
	c-0.2,0.2-0.6,0.2-0.9,0l0,0L2.9,8.8C1.3,7,1.3,4.2,2.9,2.4c1.5-1.7,4.1-1.7,5.8-0.2c0.1,0.1,0.1,0.1,0.2,0.2l0.3,0.3L9.4,2.5
	L9.4,2.5z M9.2,13.5l4.6-4.9l0.7-0.7c1.1-1.2,1.1-3.2,0-4.4c-1.1-1.2-2.9-1.2-4-0.2c-0.1,0.1-0.1,0.1-0.2,0.2L9.7,4.2
	C9.4,4.4,9,4.4,8.8,4.2l0,0L8.1,3.4C7,2.3,5.2,2.2,4.1,3.3L3.9,3.4c-1.1,1.2-1.1,3.2,0,4.4L9.2,13.5z"/>
</svg>
